<?xml version="1.0" encoding="utf-8"?>
<!-- Generator: Adobe Illustrator 25.0.0, SVG Export Plug-In . SVG Version: 6.00 Build 0)  -->
<svg version="1.1" id="Layer_1" xmlns="http://www.w3.org/2000/svg" xmlns:xlink="http://www.w3.org/1999/xlink" x="0px" y="0px"
	 viewBox="0 150 800 500" enable-background="new 0 0 800 800" xml:space="preserve">
<path d="M372.1,494.6c39.5,18.4,82.3,17.4,116.4-19c25.2-26.8,26.2-60.1,9.3-89.9c-15.2-26.8-37.4-45.7-68.7-51.8
	c-18-3.5-36.1-3.3-54.1-0.4c-31,5-58.6,17.5-81.1,39.9c-19.6,19.6-31.4,43.1-32.2,71.4c-0.9,31.8,13.5,54.8,40.6,70.4
	c19.5,11.3,41,17.2,62.8,21.9c16.5,3.5,33.3,6.7,50.1,7.9c30.8,2.3,60.4-4.2,89.1-15.5c29-11.5,53.1-28.8,70-55.4
	c13.8-21.6,21.1-44.8,18.3-70.6c-2.1-19-10.1-35.6-21.3-50.9c-35.1-47.8-83.4-73.4-140.7-84c-24.1-4.4-48.3-5.2-72.6-3.1
	c-34.5,2.9-66.6,13.7-96.9,30.2c-19.4,10.6-39,20.8-58.1,32c-23,13.4-43.2,30.6-63.2,47.9c-15.1,13-29.6,26.8-44.3,40.2
	c-0.6,0.5-1.2,1-2.5,1c0.9-1.4,1.8-2.9,2.8-4.2c40.6-50.2,87.9-92.6,143.6-125.5c21.5-12.7,43.1-25,67.2-32.3
	c27.6-8.4,55.6-14.8,84.6-15.6c19.1-0.5,38.4-1,57.3,1.2c42.1,4.9,83.6,13.5,120.8,35.1c50.1,29.2,92.3,67,122.7,116.9
	c8,13.2,12.8,27.7,14.8,43.1c2.3,17.8-4.6,32.5-15.7,45.7c-15.3,18.3-33.4,33.2-53.9,45.4c-28.2,16.8-56,34.1-87,45.3
	c-28.2,10.2-57.1,17.7-86.9,21.5c-35.1,4.5-70.1,3.2-105.1,0.1c-25.6-2.2-50.9-5.4-75.9-11.1c-53.9-12.3-105-31.6-151.1-62.7
	c-13.3-9-24.5-20-31.7-34.6c-2.4-4.8-2.5-9.2,1.5-12.7c9.1-8,18.1-16.1,27.9-23.2c11.2-8.1,22.9-15.4,34.8-22.4
	c19.2-11.3,34.1-27.1,48-44c31.6-38.5,72-64.1,117.7-82.3c25.3-10.1,51.6-11.7,78.5-10.4c29.9,1.4,57.7,9.6,83,25.3
	c19.9,12.3,35.2,29.3,44.4,51.3c5.3,12.6,11.5,24.8,13,38.6c2.2,19.5-1.5,38.3-10.5,55.5c-18.8,36-48.3,56.9-89.1,62.9
	c-32.3,4.8-63.5,2.6-93.4-10.3c-29.6-12.8-49.8-41.9-49.2-71.6c0.6-29.2,13.9-51.6,39.8-65.8c23.4-12.9,48.6-17.6,75.2-13.9
	c24.8,3.4,44.8,14.2,54.9,38.2c9.6,22.9,12.3,46.5-0.3,69.3c-11,19.8-29.2,29.5-51.3,31.8C406.3,503.3,389.1,499.8,372.1,494.6z"/>
</svg>
